<svg width="24" height="24" viewBox="0 0 24 24" fill="none" xmlns="http://www.w3.org/2000/svg">
<circle cx="12" cy="12" r="12" fill="white"/>
<path d="M15.4316 22.8965C15.4316 23.1354 15.4173 23.3389 15.3936 23.5078C14.3172 23.826 13.179 24 12 24C11.8506 24 11.7018 23.9957 11.5537 23.9902L15.4316 14.0137V22.8965ZM10.6602 23.9238C9.11789 23.7518 7.66469 23.2862 6.35547 22.584C6.34464 22.3816 6.33691 22.1569 6.33691 21.9102V13.7695L10.6602 23.9238ZM18.6846 1.94336C21.8901 4.10653 23.9999 7.78064 24 11.9502C24 16.3366 21.665 20.1748 18.1758 22.2822V14.4668C18.1758 14.0476 18.2042 13.7414 18.2617 13.5488C18.3307 13.3449 18.4575 13.2086 18.6416 13.1406C18.8257 13.0614 19.1018 13.0162 19.4697 13.0049V12.665C19.1476 12.6764 18.7388 12.6879 18.2441 12.6992C17.7612 12.7105 17.2667 12.7158 16.7607 12.7158H15.5352L12.3516 20.9346L8.87402 12.665C8.50591 12.6764 8.07982 12.6879 7.59668 12.6992C7.12514 12.7105 6.64199 12.7158 6.14746 12.7158C5.88303 12.7158 5.61284 12.7105 5.33691 12.6992C5.06093 12.6879 4.83052 12.6764 4.64648 12.665V13.0049C5.00278 13.0162 5.27301 13.0614 5.45703 13.1406C5.65261 13.2086 5.77939 13.3449 5.83691 13.5488C5.90594 13.7414 5.94043 14.0476 5.94043 14.4668V22.1143C5.94043 22.1942 5.93704 22.2717 5.93555 22.3467C2.38521 20.254 0 16.3828 0 11.9502C0.00013192 7.89531 1.99673 4.31075 5.05469 2.12695L8.41602 11.6016C8.50567 11.5903 8.60129 11.585 8.70215 11.585H9.30762C9.40851 11.585 9.50407 11.5903 9.59375 11.6016L12.0811 4.03906L14.5566 11.6016C14.6463 11.5903 14.7419 11.585 14.8428 11.585H15.4482C15.5491 11.585 15.6447 11.5903 15.7344 11.6016L18.6846 1.94336ZM10.457 0C10.5063 0.027207 10.5553 0.0582415 10.6025 0.0957031C10.7708 0.220158 10.9113 0.457857 11.0234 0.808594L11.8867 3.44629L10.1758 8.48926L7.72559 1.31738C7.65849 1.11431 7.61304 0.923392 7.58691 0.745117C8.49489 0.384268 9.45615 0.129006 10.457 0ZM13.999 0.0683594C15.5238 0.32511 16.9515 0.869212 18.2236 1.64551C18.1813 2.08392 18.0586 2.63097 17.8535 3.28613L16.2529 8.41602L13.9512 1.31738C13.8167 0.899115 13.7599 0.593735 13.7822 0.401367C13.8081 0.253745 13.8807 0.142669 13.999 0.0683594Z" fill="#2D2D2D"/>
</svg>
